<svg width="66" height="66" viewBox="0 0 66 66" fill="none" xmlns="http://www.w3.org/2000/svg">
<path d="M65 33C65 50.6731 50.6731 65 33 65C15.3269 65 1 50.6731 1 33C1 15.3269 15.3269 1 33 1C50.6731 1 65 15.3269 65 33Z" fill="#1D2654" stroke="white"/>
<path fill-rule="evenodd" clip-rule="evenodd" d="M32.9995 14.7327C22.2718 14.7327 10.4832 19.6635 9.77585 25.2988C9.32983 28.8524 15.7746 38.3814 22.4298 44.9368C20.0583 47.1278 19.0267 49.8205 18.9113 51.5969H32.9995H47.0878C46.9724 49.8205 45.9408 47.1278 43.5693 44.9368C50.2245 38.3814 56.6693 28.8524 56.2232 25.2988C55.5159 19.6635 43.7272 14.7327 32.9995 14.7327Z" fill="#FF6854"/>
<path fill-rule="evenodd" clip-rule="evenodd" d="M13.3041 22.4828C12.088 23.5948 11.5171 24.6281 11.4073 25.5029C11.3542 25.9263 11.5114 26.8392 12.1387 28.2926C12.7344 29.6729 13.6533 31.3161 14.8156 33.0911C17.1386 36.6388 20.3392 40.5692 23.5838 43.7652C23.9039 44.0805 24.081 44.5131 24.0738 44.9624C24.0666 45.4117 23.8758 45.8384 23.5458 46.1434C22.2147 47.3731 21.3955 48.7618 20.956 49.9526H45.0443C44.6049 48.7618 43.7856 47.3731 42.4546 46.1434C42.1245 45.8384 41.9337 45.4117 41.9265 44.9624C41.9193 44.5131 42.0964 44.0805 42.4165 43.7652C45.6611 40.5692 48.8617 36.6388 51.1848 33.0911C52.3471 31.3161 53.2659 29.6729 53.8617 28.2926C54.489 26.8392 54.6462 25.9263 54.593 25.5029C54.4832 24.6281 53.9124 23.5948 52.6962 22.4828C51.494 21.3836 49.7862 20.3263 47.7044 19.4048C43.5408 17.562 38.1387 16.3756 33.0002 16.3756C27.8617 16.3756 22.4595 17.562 18.2959 19.4048C16.2141 20.3263 14.5063 21.3836 13.3041 22.4828ZM16.9654 16.3989C21.5549 14.3675 27.411 13.0884 33.0002 13.0884C38.5894 13.0884 44.4454 14.3675 49.0349 16.3989C51.3296 17.4146 53.3721 18.6466 54.9144 20.0568C56.4429 21.4543 57.6108 23.1506 57.8547 25.0935C58.0246 26.4468 57.5434 28.0576 56.8798 29.5952C56.1846 31.2059 55.16 33.021 53.9349 34.8919C51.7565 38.2186 48.8694 41.8356 45.8603 44.9573C47.7201 47.1601 48.6078 49.6299 48.7286 51.4897C48.758 51.9432 48.5984 52.3886 48.2877 52.7202C47.9769 53.0517 47.5428 53.2398 47.0884 53.2398H18.9119C18.4575 53.2398 18.0234 53.0517 17.7127 52.7202C17.4019 52.3886 17.2423 51.9432 17.2718 51.4897C17.3925 49.6299 18.2802 47.1601 20.14 44.9573C17.1309 41.8356 14.2438 38.2186 12.0654 34.8919C10.8404 33.021 9.81573 31.2059 9.12054 29.5952C8.4569 28.0576 7.97578 26.4468 8.14565 25.0935C8.38951 23.1506 9.55747 21.4543 11.0859 20.0568C12.6282 18.6466 14.6707 17.4146 16.9654 16.3989Z" fill="#1D2654"/>
<path fill-rule="evenodd" clip-rule="evenodd" d="M28.8141 13.7847C28.2907 13.402 27.5562 13.5161 27.1735 14.0396C26.7901 14.564 26.5988 15.3414 26.4799 16.0896C26.351 16.9003 26.2757 17.911 26.2502 19.074C26.1992 21.4045 26.3465 24.4436 26.7163 27.9126C27.3376 33.7389 28.5935 40.84 30.632 47.9226C26.8356 43.9307 23.9989 38.5134 22.1243 33.293C20.9562 30.0401 20.179 26.911 19.7776 24.3301C19.3664 21.6854 19.3795 19.7954 19.6401 18.9157C19.8243 18.294 19.4697 17.6407 18.848 17.4565C18.2263 17.2723 17.573 17.627 17.3888 18.2487C16.9676 19.6706 17.0416 22.0162 17.4575 24.6909C17.8833 27.4293 18.6994 30.7032 19.9144 34.0866C22.3315 40.8178 26.3966 48.1731 32.3018 52.5406C32.7136 52.8451 33.2752 52.8476 33.6896 52.5468C34.104 52.2459 34.2757 51.7112 34.1137 51.2254C31.3859 43.0419 29.7763 34.4646 29.0511 27.6636C28.6885 24.2628 28.5495 21.3282 28.5977 19.1254C28.6219 18.0218 28.6927 17.1259 28.7988 16.4581C28.8519 16.1243 28.9107 15.8669 28.9693 15.6791C29.0222 15.5091 29.0621 15.4381 29.0687 15.4262C29.0699 15.4241 29.0701 15.4239 29.069 15.4253C29.4517 14.9019 29.3376 14.1674 28.8141 13.7847Z" fill="#1D2654"/>
<path fill-rule="evenodd" clip-rule="evenodd" d="M37.1856 13.7847C37.709 13.402 38.4435 13.5161 38.8262 14.0396C39.2096 14.564 39.4009 15.3414 39.5198 16.0896C39.6487 16.9003 39.724 17.911 39.7494 19.074C39.8005 21.4045 39.6532 24.4436 39.2834 27.9126C38.6621 33.7389 37.4062 40.84 35.3677 47.9226C39.1641 43.9307 42.0008 38.5134 43.8754 33.293C45.0435 30.0401 45.8207 26.911 46.2221 24.3301C46.6333 21.6854 46.6202 19.7954 46.3595 18.9157C46.1754 18.294 46.53 17.6407 47.1517 17.4565C47.7734 17.2723 48.4267 17.627 48.6109 18.2487C49.0321 19.6706 48.9581 22.0162 48.5422 24.6909C48.1164 27.4293 47.3002 30.7032 46.0853 34.0866C43.6682 40.8178 39.6031 48.1731 33.6979 52.5406C33.2861 52.8451 32.7245 52.8476 32.3101 52.5468C31.8957 52.2459 31.724 51.7112 31.886 51.2254C34.6138 43.0419 36.2234 34.4646 36.9486 27.6636C37.3112 24.2628 37.4502 21.3282 37.402 19.1254C37.3778 18.0218 37.307 17.1259 37.2009 16.4581C37.1478 16.1243 37.089 15.8669 37.0304 15.6791C36.9775 15.5091 36.9376 15.4381 36.9309 15.4262C36.9298 15.4241 36.9296 15.4239 36.9307 15.4253C36.548 14.9019 36.6621 14.1674 37.1856 13.7847Z" fill="#1D2654"/>
</svg>
